<svg width="360" height="171" viewBox="0 0 360 171" fill="none" xmlns="http://www.w3.org/2000/svg">
<g clip-path="url(#clip0_395_1158)">
<path d="M72.2646 121.269C71.2038 121.271 70.1868 121.697 69.4367 122.454C68.6865 123.212 68.2646 124.239 68.2634 125.31V134.764C68.2646 135.835 68.6865 136.862 69.4367 137.62C70.1868 138.377 71.2038 138.803 72.2646 138.805H77.3397C78.4006 138.803 79.4176 138.377 80.1677 137.62C80.9178 136.862 81.3398 135.835 81.3409 134.764V125.31C81.3398 124.239 80.9178 123.212 80.1677 122.454C79.4176 121.697 78.4006 121.271 77.3397 121.269H72.2646Z" fill="#14213D"/>
<path d="M166.08 139.119H161.005C159.862 139.118 158.765 138.659 157.957 137.842C157.148 137.026 156.694 135.918 156.692 134.764V125.31C156.694 124.155 157.148 123.048 157.957 122.232C158.765 121.415 159.862 120.956 161.005 120.955H166.08C167.223 120.956 168.32 121.415 169.128 122.232C169.937 123.048 170.391 124.155 170.393 125.31V134.764C170.391 135.918 169.937 137.026 169.128 137.842C168.32 138.659 167.223 139.118 166.08 139.119Z" fill="#14213D"/>
<path d="M162.712 131.55H75.3206C71.3434 131.55 68.1077 129.182 68.1077 126.271V109.3L72.4454 104.687H166.432L169.925 109.31V126.271C169.925 129.182 166.69 131.55 162.712 131.55Z" fill="#F4B41C"/>
<path d="M166.024 113.177H72.9438L71.9979 98.5292L72.5998 97.0304L76.0986 88.3352H162.239L166.97 98.2091L166.024 113.177Z" fill="#F4B41C"/>
<path d="M166.812 98.2407L166.117 109.246H145.639V101.071L166.23 97.0269L166.812 98.2407Z" fill="white"/>
<path d="M93.0175 101.07V109.246H72.8467L72.1554 98.5548L72.744 97.0896L93.0175 101.07Z" fill="white"/>
<path d="M161.72 90.8509H76.6168L85.6937 60.2954C86.0639 59.0334 86.8262 57.9253 87.8681 57.1346C88.91 56.3439 90.1761 55.9127 91.4794 55.9047L147.84 55.3626C149.202 55.3493 150.529 55.7965 151.61 56.6332C152.691 57.4699 153.463 58.6478 153.805 59.9793L161.72 90.8509Z" fill="#F4B41C"/>
<path d="M155.168 87.9616L83.1543 87.0993C83.0633 87.0982 82.9738 87.0755 82.893 87.0331C82.8122 86.9907 82.7424 86.9298 82.6891 86.8552C82.6359 86.7806 82.6008 86.6944 82.5865 86.6036C82.5723 86.5128 82.5793 86.4199 82.6071 86.3323L89.5108 64.5797C89.5484 64.4611 89.6224 64.3577 89.7219 64.2843C89.8215 64.2109 89.9416 64.1714 90.0649 64.1714H147.987C148.11 64.1714 148.231 64.2109 148.33 64.2842C148.43 64.3576 148.504 64.4609 148.541 64.5794L155.729 87.1944C155.757 87.2831 155.764 87.3773 155.749 87.4692C155.734 87.5611 155.698 87.6482 155.643 87.7231C155.589 87.798 155.517 87.8587 155.434 87.9002C155.352 87.9417 155.261 87.9627 155.168 87.9616Z" fill="white"/>
<path d="M128.874 59.0913H109.463C109.3 59.0913 109.151 58.9287 109.076 58.6667C109.001 58.3986 109.012 58.1133 109.107 57.8517L110.707 53.7639C110.789 53.5555 110.922 53.4312 111.064 53.4312H127.273C127.414 53.4312 127.548 53.5555 127.629 53.7639L129.23 57.8517C129.325 58.1133 129.336 58.3986 129.261 58.6667C129.185 58.9287 129.037 59.0913 128.874 59.0913Z" fill="#4CC9F0"/>
<path d="M76.6704 90.2219H63.9043V87.3881C63.9053 86.4721 64.2661 85.5938 64.9075 84.946C65.549 84.2983 66.4186 83.9339 67.3257 83.9329H76.6704V90.2219Z" fill="#4CC9F0"/>
<path d="M174.44 90.2219H161.674V83.9329H171.019C171.926 83.9339 172.796 84.2983 173.437 84.946C174.079 85.5938 174.439 86.4721 174.44 87.3881V90.2219Z" fill="#4CC9F0"/>
<path d="M62.4106 134.396L0.000244141 157.038L0.26518 157.783L62.6756 135.141L62.4106 134.396Z" fill="#3F3D56"/>
<path d="M175.54 134.398L175.276 135.143L237.688 157.779L237.953 157.034L175.54 134.398Z" fill="#3F3D56"/>
<path d="M122.64 150.815H118.905V145.942H122.64V150.815ZM122.64 141.069H118.905V136.196H122.64V141.069Z" fill="#E6E6E6"/>
<path d="M122.64 171H118.905V166.127H122.64V171ZM122.64 161.254H118.905V156.381H122.64V161.254Z" fill="#E6E6E6"/>
<path d="M286.795 153.824H282.68L282 150.5L287.013 150.824L286.795 153.824Z" fill="#FA9898"/>
<path d="M287.832 158.195H274.565V158.026C274.567 156.643 275.111 155.318 276.079 154.34C277.047 153.362 278.36 152.812 279.729 152.811H287.832L287.832 158.195Z" fill="#14213D"/>
<path d="M339.794 146.24L336.267 148.38L330.956 141.946L335.887 139.864L339.794 146.24Z" fill="#FA9898"/>
<path d="M331.42 156.101L331.334 155.955C330.63 154.769 330.421 153.35 330.752 152.009C331.083 150.667 331.928 149.513 333.101 148.8L340.046 144.585L342.792 149.201L331.42 156.101Z" fill="#14213D"/>
<path d="M287.852 150.86L287.781 150.86C285.779 150.853 283.78 150.737 281.791 150.512C281.033 150.436 280.21 150.354 279.219 150.272L279.185 150.265C278.509 150.062 278.491 143.66 278.777 121.743C278.924 110.517 279.09 97.794 278.892 89.6912L278.89 89.6116L278.95 89.5592C286.289 83.1124 295.715 80.6958 305.49 82.7547L305.562 82.7699L305.6 82.8343C309.644 89.7439 315.749 99.6966 321.653 109.322C335.207 131.417 339.084 137.915 338.659 138.405L338.608 138.445C337.682 138.913 336.987 139.273 336.396 139.579C334.418 140.603 333.599 141.027 329.2 142.857L329.091 142.902L329.012 142.814C315.259 127.595 303.815 110.595 296.736 94.8791C295.909 100.244 294.905 107.25 293.844 114.653C290.793 135.939 288.731 149.956 287.902 150.809L287.852 150.86Z" fill="url(#paint0_radial_395_1158)"/>
<path d="M309.212 21.7299C310.597 15.9546 311.77 9.44064 309.158 4.12151C307.346 0.430839 300.641 -0.812016 296.798 0.517586C292.955 1.84719 290.176 5.4545 288.954 9.38761C287.732 13.3207 287.874 17.5589 288.406 21.6477C295.475 21.5105 302.543 21.3734 309.212 21.7299Z" fill="#2F2E41"/>
<path d="M297.284 21.7282C301.836 21.7282 305.526 18.0013 305.526 13.404C305.526 8.80669 301.836 5.07983 297.284 5.07983C292.732 5.07983 289.041 8.80669 289.041 13.404C289.041 18.0013 292.732 21.7282 297.284 21.7282Z" fill="#FA9898"/>
<path d="M307.36 11.6895C307.386 10.2885 307.134 8.89645 306.616 7.59612C306.099 6.29579 305.329 5.11369 304.351 4.12004C303.372 3.1264 302.206 2.34149 300.922 1.81195C299.637 1.28242 298.26 1.01906 296.873 1.03753C295.485 1.056 294.116 1.35592 292.845 1.91947C291.575 2.48303 290.43 3.29871 289.478 4.31805C288.526 5.3374 287.786 6.5396 287.303 7.85324C286.82 9.16688 286.604 10.5651 286.667 11.965C293.722 11.9801 300.777 11.9952 307.36 11.6895Z" fill="#2F2E41"/>
<path d="M291.557 91.3286C299.758 91.2917 307.904 92.6691 315.645 95.4014C315.915 82.2799 311.442 69.1341 303.354 59.2997L303.293 59.2262L303.324 59.136C305.484 52.8321 307.717 46.3162 309.713 39.8326L309.682 39.7237C308.283 34.6996 305.279 29.6228 300.5 24.2028C299.982 23.6604 299.278 23.3374 298.533 23.2992C297.787 23.2611 297.055 23.5107 296.485 23.9974C287.99 31.862 283.371 43.6457 284.431 54.7502L284.434 54.7829L284.425 54.8145C280.682 67.6184 279.324 74.1948 278.125 79.9972C277.251 84.2298 276.494 87.8949 274.974 93.1316C280.422 91.9344 285.982 91.33 291.557 91.3286Z" fill="#14213D" stroke="black" stroke-opacity="0.1" stroke-width="0.25"/>
<path opacity="0.1" d="M303.631 50.853L291.456 77.6197L284.502 70.5102L303.631 50.853Z" fill="black"/>
<path d="M276.304 65.7206L277.153 67.3862C277.161 67.4016 277.162 67.4195 277.157 67.436C277.152 67.4525 277.14 67.4662 277.125 67.4741L277.084 67.4954L281.506 76.1722C281.628 76.4123 281.651 76.6917 281.57 76.9488C281.488 77.206 281.309 77.4199 281.071 77.5435L275.703 80.3338C275.585 80.395 275.456 80.4321 275.324 80.4431C275.192 80.4542 275.06 80.4388 274.934 80.398C274.808 80.3572 274.691 80.2917 274.59 80.2053C274.489 80.1189 274.406 80.0132 274.345 79.8943L270.078 71.5218L270.049 71.5372C270.038 71.5428 270.025 71.5439 270.014 71.5402C270.002 71.5365 269.993 71.5283 269.987 71.5175L269.504 70.5695C269.501 70.5641 269.5 70.5583 269.499 70.5522C269.499 70.5462 269.499 70.5401 269.501 70.5343C269.503 70.5285 269.506 70.5232 269.51 70.5185C269.514 70.5139 269.518 70.5101 269.524 70.5073L269.553 70.4919L269.371 70.1349L269.341 70.1504C269.33 70.1562 269.317 70.1573 269.305 70.1533C269.293 70.1494 269.283 70.1407 269.277 70.1293L268.801 69.1943C268.795 69.183 268.794 69.1697 268.798 69.1576C268.801 69.1454 268.81 69.1353 268.821 69.1294L268.851 69.1139L268.603 68.6265L268.572 68.6423C268.562 68.6475 268.551 68.6484 268.54 68.645C268.529 68.6416 268.52 68.634 268.515 68.6239L268.255 68.1136C268.25 68.1035 268.249 68.0917 268.252 68.0808C268.256 68.07 268.263 68.0609 268.273 68.0557L268.304 68.0399L267.777 67.0067C267.655 66.7667 267.632 66.4874 267.714 66.2303C267.795 65.9732 267.975 65.7594 268.212 65.6358L273.581 62.8455C273.818 62.722 274.095 62.6988 274.35 62.7812C274.604 62.8635 274.816 63.0446 274.938 63.2847L276.176 65.7136L276.217 65.6924C276.232 65.6845 276.25 65.683 276.267 65.6883C276.283 65.6936 276.296 65.7052 276.304 65.7206Z" fill="#3F3D56"/>
<path d="M274.6 63.6866L281.115 76.4702C281.193 76.6225 281.207 76.7997 281.155 76.9628C281.104 77.1259 280.99 77.2616 280.839 77.34L275.7 80.0109C275.55 80.0895 275.374 80.1044 275.213 80.0525C275.052 80.0006 274.917 79.8861 274.84 79.7342L274.839 79.7324L268.324 66.9489C268.286 66.8735 268.262 66.7911 268.255 66.7066C268.248 66.622 268.258 66.5369 268.284 66.4561C268.309 66.3754 268.35 66.3005 268.405 66.2357C268.459 66.171 268.525 66.1177 268.6 66.0789L269.369 65.6791L269.42 65.7788C269.452 65.8409 269.495 65.8961 269.548 65.9412C269.601 65.9864 269.662 66.0206 269.728 66.0419C269.793 66.0632 269.863 66.0712 269.932 66.0655C270.001 66.0597 270.068 66.0403 270.129 66.0083L272.743 64.6499C272.867 64.5854 272.961 64.4736 273.003 64.3393C273.046 64.2049 273.034 64.059 272.97 63.9335L272.919 63.8339L273.739 63.4079C273.89 63.3294 274.065 63.3147 274.227 63.3669C274.388 63.4191 274.523 63.534 274.6 63.6863L274.6 63.6866Z" fill="#FCFCFF"/>
<path d="M276.489 79.3043C276.981 79.2697 277.46 79.1266 277.891 78.885C278.322 78.6433 278.696 78.3091 278.986 77.9059C279.276 77.5026 279.474 77.04 279.568 76.5508C279.661 76.0616 279.648 75.5577 279.527 75.0744L289.559 68.4371L283.838 65.9412L275.189 72.6267C274.399 72.8844 273.729 73.4259 273.308 74.1487C272.886 74.8715 272.742 75.7254 272.902 76.5485C273.062 77.3716 273.516 78.1067 274.177 78.6147C274.838 79.1226 275.66 79.368 276.489 79.3043Z" fill="#FA9898"/>
<path d="M286.141 74.5226L286.014 74.4323C283.627 72.6577 280.977 70.8227 278.414 69.048L278.26 68.9414L278.381 68.7981C283.852 62.3341 289.328 55.5824 294.625 49.051C294.621 49.0405 294.618 49.0329 294.615 49.0275L294.665 49.0018L294.686 48.9758L294.697 48.9853L294.729 48.9689L294.585 48.9801L292.952 36.0496C291.478 34.0179 291.195 29.9842 293.128 27.1684C295.13 24.2515 299.365 23.2753 302.191 25.0785C302.932 25.5805 303.551 26.2443 304.003 27.0207C304.455 27.7971 304.728 28.6662 304.803 29.5637C304.908 30.3633 304.835 31.1765 304.589 31.9439C304.343 32.7112 303.93 33.4135 303.381 33.9992C304.075 40.8423 304.102 46.9589 304.127 52.8754L304.128 52.9345L304.091 52.9831C298.444 60.2285 292.241 67.4353 286.242 74.4048L286.141 74.5226Z" fill="#14213D" stroke="black" stroke-opacity="0.1" stroke-width="0.25"/>
<path d="M119.06 39.2228C129.295 39.2228 137.593 30.843 137.593 20.5061C137.593 10.1691 129.295 1.78931 119.06 1.78931C108.824 1.78931 100.526 10.1691 100.526 20.5061C100.526 30.843 108.824 39.2228 119.06 39.2228Z" fill="url(#paint1_linear_395_1158)"/>
<path d="M117.293 28.4069L111.746 21.204L114.972 18.6702L117.599 22.0806L126.472 12.6213L129.439 15.4603L117.293 28.4069Z" fill="white"/>
<path d="M359.608 158.711H265.942C265.838 158.711 265.738 158.669 265.665 158.595C265.591 158.52 265.55 158.42 265.55 158.315C265.55 158.21 265.591 158.109 265.665 158.035C265.738 157.961 265.838 157.919 265.942 157.919H359.608C359.712 157.919 359.812 157.961 359.885 158.035C359.959 158.109 360 158.21 360 158.315C360 158.42 359.959 158.52 359.885 158.595C359.812 158.669 359.712 158.711 359.608 158.711Z" fill="#3F3D56"/>
<path fill-rule="evenodd" clip-rule="evenodd" d="M272.307 69.3315L272.614 69.3988L273.157 69.1132C273.63 68.8646 273.709 68.8256 273.764 68.8124C274.572 68.6182 274.92 69.5158 274.198 69.9311L274.056 70.0127L274.221 70.2762C274.311 70.4211 274.387 70.5388 274.389 70.5377C274.392 70.5366 274.454 70.4441 274.528 70.3322C274.628 70.1798 274.677 70.1147 274.724 70.0725C275.393 69.4661 274.983 68.4268 274.056 68.38C273.703 68.3623 273.667 68.3756 272.737 68.8716L272 69.2642L272.307 69.3315Z" fill="url(#paint2_linear_395_1158)"/>
<path fill-rule="evenodd" clip-rule="evenodd" d="M273.483 70.9334C274.165 72.024 274.202 72.081 274.211 72.0612C274.217 72.0497 274.267 71.9396 274.323 71.8165L274.424 71.5928L273.951 70.8248L273.477 70.0567L273.811 69.8707C274.183 69.6638 274.179 69.6668 274.184 69.5524C274.192 69.3845 274.033 69.2155 273.871 69.2193C273.83 69.2203 273.75 69.2597 273.294 69.5025L272.765 69.7847L273.483 70.9334Z" fill="url(#paint3_linear_395_1158)"/>
</g>
<defs>
<radialGradient id="paint0_radial_395_1158" cx="0" cy="0" r="1" gradientUnits="userSpaceOnUse" gradientTransform="translate(290.5 104.5) rotate(33.6901) scale(55.886 92.0476)">
<stop stop-color="#A4119D"/>
<stop offset="1" stop-color="#FF3068" stop-opacity="0.88"/>
</radialGradient>
<linearGradient id="paint1_linear_395_1158" x1="101" y1="20.9999" x2="125" y2="20.9999" gradientUnits="userSpaceOnUse">
<stop stop-color="#A4119D"/>
<stop offset="1" stop-color="#FF3068" stop-opacity="0.83"/>
</linearGradient>
<linearGradient id="paint2_linear_395_1158" x1="273.052" y1="68.4617" x2="274.225" y2="70.6267" gradientUnits="userSpaceOnUse">
<stop stop-color="#A4119D"/>
<stop offset="1" stop-color="#FF3068"/>
</linearGradient>
<linearGradient id="paint3_linear_395_1158" x1="272.419" y1="69.9687" x2="276.009" y2="67.7238" gradientUnits="userSpaceOnUse">
<stop stop-color="#FBBC05"/>
<stop offset="1" stop-color="#183182" stop-opacity="0"/>
</linearGradient>
<clipPath id="clip0_395_1158">
<rect width="360" height="171" fill="white"/>
</clipPath>
</defs>
</svg>
