<?xml version="1.0" encoding="UTF-8"?>
<svg xmlns="http://www.w3.org/2000/svg" xmlns:xlink="http://www.w3.org/1999/xlink" width="360px" height="171px" viewBox="0 0 90 43" version="1.1">
<defs>
<radialGradient id="radial0" gradientUnits="userSpaceOnUse" cx="0" cy="0" fx="0" fy="0" r="1" gradientTransform="matrix(11.624986,7.795322,-12.764716,19.259022,72.625,26.277778)">
<stop offset="0" style="stop-color:rgb(64.313725%,6.666667%,61.568627%);stop-opacity:1;"/>
<stop offset="1" style="stop-color:rgb(100%,18.823529%,40.784314%);stop-opacity:0.878431;"/>
</radialGradient>
<filter id="alpha" filterUnits="objectBoundingBox" x="0%" y="0%" width="100%" height="100%">
  <feColorMatrix type="matrix" in="SourceGraphic" values="0 0 0 0 1 0 0 0 0 1 0 0 0 0 1 0 0 0 1 0"/>
</filter>
<mask id="mask0">
  <g filter="url(#alpha)">
<rect x="0" y="0" width="90" height="43" style="fill:rgb(0%,0%,0%);fill-opacity:0.101961;stroke:none;"/>
  </g>
</mask>
<clipPath id="clip1">
  <rect x="0" y="0" width="90" height="43"/>
</clipPath>
<g id="surface5" clip-path="url(#clip1)">
<path style=" stroke:none;fill-rule:nonzero;fill:rgb(0%,0%,0%);fill-opacity:1;" d="M 75.90625 12.789062 L 72.863281 19.519531 L 71.125 17.730469 Z M 75.90625 12.789062 "/>
</g>
<linearGradient id="linear0" gradientUnits="userSpaceOnUse" x1="101" y1="20.9999" x2="125" y2="20.9999" gradientTransform="matrix(0.25,0,0,0.251462,0,0)">
<stop offset="0" style="stop-color:rgb(64.313725%,6.666667%,61.568627%);stop-opacity:1;"/>
<stop offset="1" style="stop-color:rgb(100%,18.823529%,40.784314%);stop-opacity:0.831373;"/>
</linearGradient>
<linearGradient id="linear1" gradientUnits="userSpaceOnUse" x1="273.052" y1="68.4617" x2="274.225" y2="70.6267" gradientTransform="matrix(0.25,0,0,0.251462,0,0)">
<stop offset="0" style="stop-color:rgb(64.313725%,6.666667%,61.568627%);stop-opacity:1;"/>
<stop offset="1" style="stop-color:rgb(100%,18.823529%,40.784314%);stop-opacity:1;"/>
</linearGradient>
<linearGradient id="linear2" gradientUnits="userSpaceOnUse" x1="272.419" y1="69.9687" x2="276.009" y2="67.7238" gradientTransform="matrix(0.25,0,0,0.251462,0,0)">
<stop offset="0" style="stop-color:rgb(98.431373%,73.72549%,1.960784%);stop-opacity:1;"/>
<stop offset="1" style="stop-color:rgb(9.411765%,19.215686%,50.980392%);stop-opacity:0;"/>
</linearGradient>
</defs>
<g id="surface1">
<path style=" stroke:none;fill-rule:nonzero;fill:rgb(7.843137%,12.941176%,23.921569%);fill-opacity:1;" d="M 18.066406 30.496094 C 17.800781 30.496094 17.546875 30.601562 17.359375 30.792969 C 17.171875 30.984375 17.066406 31.242188 17.066406 31.511719 L 17.066406 33.886719 C 17.066406 34.15625 17.171875 34.414062 17.359375 34.605469 C 17.546875 34.796875 17.800781 34.902344 18.066406 34.902344 L 19.335938 34.902344 C 19.601562 34.902344 19.855469 34.796875 20.042969 34.605469 C 20.230469 34.414062 20.335938 34.15625 20.335938 33.886719 L 20.335938 31.511719 C 20.335938 31.242188 20.230469 30.984375 20.042969 30.792969 C 19.855469 30.601562 19.601562 30.496094 19.335938 30.496094 Z M 18.066406 30.496094 "/>
<path style=" stroke:none;fill-rule:nonzero;fill:rgb(7.843137%,12.941176%,23.921569%);fill-opacity:1;" d="M 41.519531 34.984375 L 40.25 34.984375 C 39.964844 34.984375 39.691406 34.867188 39.488281 34.660156 C 39.285156 34.457031 39.171875 34.179688 39.171875 33.886719 L 39.171875 31.511719 C 39.171875 31.21875 39.285156 30.941406 39.488281 30.738281 C 39.691406 30.53125 39.964844 30.414062 40.25 30.414062 L 41.519531 30.414062 C 41.804688 30.414062 42.078125 30.53125 42.28125 30.738281 C 42.484375 30.941406 42.597656 31.21875 42.597656 31.511719 L 42.597656 33.886719 C 42.597656 34.179688 42.484375 34.457031 42.28125 34.660156 C 42.078125 34.867188 41.804688 34.984375 41.519531 34.984375 Z M 41.519531 34.984375 "/>
<path style=" stroke:none;fill-rule:nonzero;fill:rgb(95.686275%,70.588235%,10.980392%);fill-opacity:1;" d="M 40.679688 33.078125 L 18.832031 33.078125 C 17.835938 33.078125 17.027344 32.484375 17.027344 31.753906 L 17.027344 27.484375 L 18.113281 26.324219 L 41.609375 26.324219 L 42.480469 27.488281 L 42.480469 31.753906 C 42.480469 32.484375 41.671875 33.078125 40.679688 33.078125 Z M 40.679688 33.078125 "/>
<path style=" stroke:none;fill-rule:nonzero;fill:rgb(95.686275%,70.588235%,10.980392%);fill-opacity:1;" d="M 41.507812 28.460938 L 18.234375 28.460938 L 18 24.777344 L 18.148438 24.398438 L 19.023438 22.214844 L 40.558594 22.214844 L 41.742188 24.695312 Z M 41.507812 28.460938 "/>
<path style=" stroke:none;fill-rule:nonzero;fill:rgb(100%,100%,100%);fill-opacity:1;" d="M 41.703125 24.703125 L 41.527344 27.472656 L 36.410156 27.472656 L 36.410156 25.414062 L 41.558594 24.398438 Z M 41.703125 24.703125 "/>
<path style=" stroke:none;fill-rule:nonzero;fill:rgb(100%,100%,100%);fill-opacity:1;" d="M 23.253906 25.414062 L 23.253906 27.472656 L 18.210938 27.472656 L 18.039062 24.78125 L 18.1875 24.414062 Z M 23.253906 25.414062 "/>
<path style=" stroke:none;fill-rule:nonzero;fill:rgb(95.686275%,70.588235%,10.980392%);fill-opacity:1;" d="M 40.429688 22.84375 L 19.152344 22.84375 L 21.421875 15.160156 C 21.515625 14.84375 21.707031 14.566406 21.96875 14.367188 C 22.226562 14.167969 22.542969 14.058594 22.871094 14.058594 L 36.960938 13.921875 C 37.300781 13.917969 37.632812 14.03125 37.902344 14.242188 C 38.171875 14.453125 38.367188 14.746094 38.453125 15.082031 Z M 40.429688 22.84375 "/>
<path style=" stroke:none;fill-rule:nonzero;fill:rgb(100%,100%,100%);fill-opacity:1;" d="M 38.792969 22.117188 L 20.789062 21.902344 C 20.765625 21.902344 20.742188 21.894531 20.722656 21.886719 C 20.703125 21.875 20.6875 21.859375 20.671875 21.839844 C 20.660156 21.820312 20.648438 21.800781 20.648438 21.777344 C 20.644531 21.753906 20.644531 21.730469 20.652344 21.710938 L 22.378906 16.238281 C 22.386719 16.210938 22.40625 16.183594 22.429688 16.164062 C 22.457031 16.148438 22.484375 16.136719 22.515625 16.136719 L 36.996094 16.136719 C 37.027344 16.136719 37.058594 16.148438 37.082031 16.164062 C 37.109375 16.183594 37.125 16.210938 37.136719 16.238281 L 38.933594 21.925781 C 38.9375 21.949219 38.941406 21.972656 38.9375 21.996094 C 38.933594 22.019531 38.925781 22.039062 38.910156 22.058594 C 38.898438 22.078125 38.878906 22.09375 38.859375 22.105469 C 38.839844 22.113281 38.816406 22.121094 38.792969 22.117188 Z M 38.792969 22.117188 "/>
<path style=" stroke:none;fill-rule:nonzero;fill:rgb(29.803922%,78.823529%,94.117647%);fill-opacity:1;" d="M 32.21875 14.859375 L 27.367188 14.859375 C 27.324219 14.859375 27.289062 14.816406 27.269531 14.753906 C 27.25 14.683594 27.253906 14.613281 27.277344 14.546875 L 27.675781 13.519531 C 27.695312 13.46875 27.730469 13.4375 27.765625 13.4375 L 31.816406 13.4375 C 31.851562 13.4375 31.886719 13.46875 31.90625 13.519531 L 32.308594 14.546875 C 32.332031 14.613281 32.335938 14.683594 32.316406 14.753906 C 32.296875 14.816406 32.257812 14.859375 32.21875 14.859375 Z M 32.21875 14.859375 "/>
<path style=" stroke:none;fill-rule:nonzero;fill:rgb(29.803922%,78.823529%,94.117647%);fill-opacity:1;" d="M 19.167969 22.6875 L 15.976562 22.6875 L 15.976562 21.976562 C 15.976562 21.746094 16.066406 21.523438 16.226562 21.359375 C 16.386719 21.199219 16.605469 21.105469 16.832031 21.105469 L 19.167969 21.105469 Z M 19.167969 22.6875 "/>
<path style=" stroke:none;fill-rule:nonzero;fill:rgb(29.803922%,78.823529%,94.117647%);fill-opacity:1;" d="M 43.609375 22.6875 L 40.417969 22.6875 L 40.417969 21.105469 L 42.753906 21.105469 C 42.980469 21.105469 43.199219 21.199219 43.359375 21.359375 C 43.519531 21.523438 43.609375 21.746094 43.609375 21.976562 Z M 43.609375 22.6875 "/>
<path style=" stroke:none;fill-rule:nonzero;fill:rgb(24.705882%,23.921569%,33.72549%);fill-opacity:1;" d="M 15.601562 33.796875 L 0 39.488281 L 0.0664062 39.675781 L 15.667969 33.984375 Z M 15.601562 33.796875 "/>
<path style=" stroke:none;fill-rule:nonzero;fill:rgb(24.705882%,23.921569%,33.72549%);fill-opacity:1;" d="M 43.886719 33.796875 L 43.820312 33.984375 L 59.421875 39.675781 L 59.488281 39.488281 Z M 43.886719 33.796875 "/>
<path style=" stroke:none;fill-rule:nonzero;fill:rgb(90.196078%,90.196078%,90.196078%);fill-opacity:1;" d="M 30.660156 37.925781 L 29.726562 37.925781 L 29.726562 36.699219 L 30.660156 36.699219 Z M 30.660156 35.472656 L 29.726562 35.472656 L 29.726562 34.25 L 30.660156 34.25 Z M 30.660156 35.472656 "/>
<path style=" stroke:none;fill-rule:nonzero;fill:rgb(90.196078%,90.196078%,90.196078%);fill-opacity:1;" d="M 30.660156 43 L 29.726562 43 L 29.726562 41.773438 L 30.660156 41.773438 Z M 30.660156 40.550781 L 29.726562 40.550781 L 29.726562 39.324219 L 30.660156 39.324219 Z M 30.660156 40.550781 "/>
<path style=" stroke:none;fill-rule:nonzero;fill:rgb(98.039216%,59.607843%,59.607843%);fill-opacity:1;" d="M 71.699219 38.679688 L 70.671875 38.679688 L 70.5 37.84375 L 71.753906 37.925781 Z M 71.699219 38.679688 "/>
<path style=" stroke:none;fill-rule:nonzero;fill:rgb(7.843137%,12.941176%,23.921569%);fill-opacity:1;" d="M 71.957031 39.78125 L 68.640625 39.78125 L 68.640625 39.738281 C 68.640625 39.390625 68.777344 39.054688 69.019531 38.8125 C 69.261719 38.566406 69.589844 38.425781 69.933594 38.425781 L 71.957031 38.425781 Z M 71.957031 39.78125 "/>
<path style=" stroke:none;fill-rule:nonzero;fill:rgb(98.039216%,59.607843%,59.607843%);fill-opacity:1;" d="M 84.949219 36.773438 L 84.066406 37.3125 L 82.738281 35.695312 L 83.972656 35.171875 Z M 84.949219 36.773438 "/>
<path style=" stroke:none;fill-rule:nonzero;fill:rgb(7.843137%,12.941176%,23.921569%);fill-opacity:1;" d="M 82.855469 39.253906 L 82.832031 39.214844 C 82.65625 38.917969 82.605469 38.5625 82.6875 38.222656 C 82.769531 37.886719 82.980469 37.597656 83.273438 37.417969 L 85.011719 36.359375 L 85.699219 37.519531 Z M 82.855469 39.253906 "/>
<path style=" stroke:none;fill-rule:nonzero;fill:url(#radial0);" d="M 71.964844 37.9375 L 71.945312 37.9375 C 71.445312 37.933594 70.945312 37.90625 70.449219 37.847656 C 70.257812 37.828125 70.050781 37.808594 69.804688 37.789062 L 69.796875 37.785156 C 69.628906 37.734375 69.621094 36.125 69.695312 30.613281 C 69.730469 27.789062 69.773438 24.589844 69.722656 22.554688 L 69.722656 22.535156 L 69.738281 22.519531 C 71.570312 20.898438 73.929688 20.292969 76.371094 20.808594 L 76.390625 20.8125 L 76.398438 20.828125 C 77.410156 22.566406 78.9375 25.070312 80.414062 27.492188 C 83.800781 33.046875 84.769531 34.679688 84.664062 34.804688 L 84.652344 34.8125 C 84.421875 34.929688 84.246094 35.023438 84.097656 35.097656 C 83.605469 35.355469 83.398438 35.464844 82.300781 35.921875 L 82.273438 35.933594 L 82.253906 35.914062 C 78.816406 32.085938 75.953125 27.808594 74.183594 23.859375 C 73.976562 25.207031 73.726562 26.96875 73.460938 28.832031 C 72.699219 34.183594 72.183594 37.707031 71.976562 37.921875 Z M 71.964844 37.9375 "/>
<path style=" stroke:none;fill-rule:nonzero;fill:rgb(18.431373%,18.039216%,25.490196%);fill-opacity:1;" d="M 77.304688 5.464844 C 77.648438 4.011719 77.941406 2.375 77.289062 1.035156 C 76.835938 0.109375 75.160156 -0.203125 74.199219 0.128906 C 73.238281 0.464844 72.542969 1.371094 72.238281 2.359375 C 71.933594 3.351562 71.96875 4.414062 72.101562 5.445312 C 73.867188 5.410156 75.636719 5.375 77.304688 5.464844 Z M 77.304688 5.464844 "/>
<path style=" stroke:none;fill-rule:nonzero;fill:rgb(98.039216%,59.607843%,59.607843%);fill-opacity:1;" d="M 74.320312 5.464844 C 75.460938 5.464844 76.382812 4.527344 76.382812 3.371094 C 76.382812 2.214844 75.460938 1.277344 74.320312 1.277344 C 73.183594 1.277344 72.261719 2.214844 72.261719 3.371094 C 72.261719 4.527344 73.183594 5.464844 74.320312 5.464844 Z M 74.320312 5.464844 "/>
<path style=" stroke:none;fill-rule:nonzero;fill:rgb(18.431373%,18.039216%,25.490196%);fill-opacity:1;" d="M 76.839844 2.941406 C 76.847656 2.585938 76.785156 2.238281 76.652344 1.910156 C 76.523438 1.582031 76.332031 1.285156 76.085938 1.035156 C 75.84375 0.785156 75.550781 0.589844 75.230469 0.457031 C 74.910156 0.324219 74.566406 0.257812 74.21875 0.261719 C 73.871094 0.265625 73.527344 0.339844 73.210938 0.484375 C 72.894531 0.625 72.609375 0.828125 72.371094 1.085938 C 72.132812 1.34375 71.945312 1.644531 71.824219 1.976562 C 71.703125 2.304688 71.652344 2.65625 71.667969 3.007812 C 73.429688 3.011719 75.195312 3.015625 76.839844 2.941406 Z M 76.839844 2.941406 "/>
<path style="fill-rule:nonzero;fill:rgb(7.843137%,12.941176%,23.921569%);fill-opacity:1;stroke-width:0.25;stroke-linecap:butt;stroke-linejoin:miter;stroke:rgb(0%,0%,0%);stroke-opacity:0.101961;stroke-miterlimit:4;" d="M 291.5625 91.325309 C 299.765625 91.294241 307.90625 92.676781 315.640625 95.395258 C 315.921875 82.28443 311.4375 69.126999 303.359375 59.293877 L 303.296875 59.231741 L 303.328125 59.138536 C 305.484375 52.831668 307.71875 46.322856 309.71875 39.829578 L 309.6875 39.720839 C 308.28125 34.703307 305.28125 29.623637 300.5 24.202217 C 299.984375 23.658521 299.28125 23.332304 298.53125 23.301235 C 297.78125 23.254633 297.0625 23.50318 296.484375 24.000273 C 287.984375 31.860556 283.375 43.650981 284.4375 54.757903 L 284.4375 54.788972 L 284.421875 54.82004 C 280.6875 67.620185 279.328125 74.191134 278.125 80.000908 C 277.25 84.226199 276.5 87.89226 274.96875 93.127271 C 280.421875 91.931141 285.984375 91.325309 291.5625 91.325309 Z M 291.5625 91.325309 " transform="matrix(0.25,0,0,0.251462,0,0)"/>
<use xlink:href="#surface5" mask="url(#mask0)"/>
<path style=" stroke:none;fill-rule:nonzero;fill:rgb(24.705882%,23.921569%,33.72549%);fill-opacity:1;" d="M 69.074219 16.527344 L 69.289062 16.945312 C 69.289062 16.949219 69.289062 16.953125 69.289062 16.957031 C 69.289062 16.960938 69.285156 16.964844 69.28125 16.96875 L 69.269531 16.972656 L 70.375 19.15625 C 70.40625 19.214844 70.414062 19.285156 70.390625 19.351562 C 70.371094 19.414062 70.328125 19.46875 70.269531 19.5 L 68.925781 20.199219 C 68.894531 20.214844 68.863281 20.226562 68.832031 20.226562 C 68.796875 20.230469 68.765625 20.226562 68.734375 20.21875 C 68.703125 20.207031 68.671875 20.191406 68.648438 20.167969 C 68.621094 20.148438 68.601562 20.121094 68.585938 20.089844 L 67.519531 17.984375 L 67.511719 17.988281 C 67.507812 17.992188 67.507812 17.992188 67.503906 17.988281 C 67.5 17.988281 67.5 17.988281 67.496094 17.984375 L 67.375 17.746094 C 67.375 17.746094 67.375 17.742188 67.375 17.742188 C 67.375 17.738281 67.375 17.738281 67.375 17.738281 C 67.375 17.734375 67.375 17.734375 67.378906 17.734375 C 67.378906 17.730469 67.378906 17.730469 67.382812 17.730469 L 67.386719 17.726562 L 67.34375 17.636719 L 67.335938 17.640625 C 67.332031 17.640625 67.328125 17.640625 67.328125 17.640625 C 67.324219 17.640625 67.320312 17.636719 67.320312 17.636719 L 67.199219 17.398438 C 67.199219 17.398438 67.199219 17.394531 67.199219 17.390625 C 67.199219 17.386719 67.203125 17.386719 67.207031 17.382812 L 67.210938 17.378906 L 67.152344 17.257812 L 67.144531 17.261719 C 67.140625 17.261719 67.136719 17.261719 67.136719 17.261719 C 67.132812 17.261719 67.128906 17.257812 67.128906 17.257812 L 67.0625 17.128906 C 67.0625 17.125 67.0625 17.121094 67.0625 17.121094 C 67.0625 17.117188 67.066406 17.113281 67.066406 17.113281 L 67.074219 17.109375 L 66.945312 16.851562 C 66.914062 16.789062 66.90625 16.71875 66.929688 16.65625 C 66.949219 16.589844 66.992188 16.535156 67.054688 16.503906 L 68.394531 15.804688 C 68.453125 15.773438 68.523438 15.765625 68.585938 15.785156 C 68.652344 15.808594 68.703125 15.851562 68.734375 15.914062 L 69.042969 16.523438 L 69.054688 16.519531 C 69.058594 16.515625 69.0625 16.515625 69.066406 16.519531 C 69.070312 16.519531 69.074219 16.523438 69.074219 16.527344 Z M 69.074219 16.527344 "/>
<path style=" stroke:none;fill-rule:nonzero;fill:rgb(98.823529%,98.823529%,100%);fill-opacity:1;" d="M 68.648438 16.015625 L 70.277344 19.230469 C 70.296875 19.269531 70.300781 19.3125 70.289062 19.351562 C 70.277344 19.394531 70.246094 19.429688 70.210938 19.449219 L 68.925781 20.121094 C 68.886719 20.140625 68.84375 20.144531 68.804688 20.128906 C 68.761719 20.117188 68.730469 20.089844 68.710938 20.050781 L 67.082031 16.835938 C 67.070312 16.816406 67.066406 16.796875 67.0625 16.773438 C 67.0625 16.753906 67.066406 16.730469 67.070312 16.710938 C 67.078125 16.691406 67.085938 16.671875 67.101562 16.65625 C 67.113281 16.640625 67.132812 16.625 67.148438 16.617188 L 67.34375 16.515625 L 67.355469 16.539062 C 67.363281 16.554688 67.375 16.570312 67.386719 16.582031 C 67.398438 16.59375 67.414062 16.601562 67.433594 16.605469 C 67.449219 16.613281 67.464844 16.613281 67.484375 16.613281 C 67.5 16.613281 67.515625 16.605469 67.53125 16.597656 L 68.1875 16.257812 C 68.214844 16.242188 68.242188 16.210938 68.25 16.179688 C 68.261719 16.144531 68.257812 16.109375 68.242188 16.078125 L 68.230469 16.050781 L 68.433594 15.945312 C 68.472656 15.925781 68.515625 15.921875 68.558594 15.933594 C 68.597656 15.949219 68.628906 15.976562 68.648438 16.015625 Z M 68.648438 16.015625 "/>
<path style=" stroke:none;fill-rule:nonzero;fill:rgb(98.039216%,59.607843%,59.607843%);fill-opacity:1;" d="M 69.121094 19.941406 C 69.246094 19.933594 69.363281 19.898438 69.472656 19.835938 C 69.582031 19.777344 69.675781 19.691406 69.746094 19.589844 C 69.820312 19.488281 69.867188 19.371094 69.890625 19.25 C 69.914062 19.125 69.910156 19 69.882812 18.878906 L 72.390625 17.210938 L 70.960938 16.582031 L 68.796875 18.261719 C 68.601562 18.328125 68.433594 18.464844 68.328125 18.644531 C 68.222656 18.828125 68.183594 19.042969 68.226562 19.25 C 68.265625 19.457031 68.378906 19.640625 68.542969 19.769531 C 68.710938 19.894531 68.914062 19.957031 69.121094 19.941406 Z M 69.121094 19.941406 "/>
<path style="fill-rule:nonzero;fill:rgb(7.843137%,12.941176%,23.921569%);fill-opacity:1;stroke-width:0.25;stroke-linecap:butt;stroke-linejoin:miter;stroke:rgb(0%,0%,0%);stroke-opacity:0.101961;stroke-miterlimit:4;" d="M 286.140625 74.517351 L 286.015625 74.43968 C 283.625 72.653252 280.984375 70.820222 278.40625 69.049328 L 278.265625 68.940589 L 278.375 68.800781 C 283.859375 62.338572 289.328125 55.581214 294.625 49.056868 C 294.625 49.041334 294.625 49.025799 294.609375 49.025799 L 294.671875 48.994731 L 294.6875 48.979197 L 294.703125 48.979197 L 294.734375 48.963663 L 294.578125 48.979197 L 292.953125 36.054778 C 291.484375 34.019804 291.1875 29.980923 293.125 27.169241 C 295.125 24.248819 299.359375 23.270167 302.1875 25.072129 C 302.9375 25.584757 303.546875 26.237191 304 27.013899 C 304.453125 27.790607 304.734375 28.66052 304.796875 29.561501 C 304.90625 30.369277 304.828125 31.177053 304.59375 31.938227 C 304.34375 32.714935 303.9375 33.413972 303.375 34.00427 C 304.078125 40.839299 304.109375 46.959757 304.125 52.87827 L 304.125 52.940407 L 304.09375 52.987009 C 298.4375 60.225927 292.234375 67.433775 286.234375 74.408612 Z M 286.140625 74.517351 " transform="matrix(0.25,0,0,0.251462,0,0)"/>
<path style=" stroke:none;fill-rule:nonzero;fill:url(#linear0);" d="M 29.765625 9.863281 C 32.324219 9.863281 34.398438 7.753906 34.398438 5.15625 C 34.398438 2.558594 32.324219 0.449219 29.765625 0.449219 C 27.207031 0.449219 25.132812 2.558594 25.132812 5.15625 C 25.132812 7.753906 27.207031 9.863281 29.765625 9.863281 Z M 29.765625 9.863281 "/>
<path style=" stroke:none;fill-rule:nonzero;fill:rgb(100%,100%,100%);fill-opacity:1;" d="M 29.324219 7.144531 L 27.9375 5.332031 L 28.742188 4.695312 L 29.398438 5.550781 L 31.617188 3.171875 L 32.359375 3.886719 Z M 29.324219 7.144531 "/>
<path style=" stroke:none;fill-rule:nonzero;fill:rgb(24.705882%,23.921569%,33.72549%);fill-opacity:1;" d="M 89.902344 39.910156 L 66.484375 39.910156 C 66.460938 39.910156 66.433594 39.898438 66.417969 39.878906 C 66.398438 39.863281 66.386719 39.835938 66.386719 39.808594 C 66.386719 39.785156 66.398438 39.757812 66.417969 39.738281 C 66.433594 39.722656 66.460938 39.710938 66.484375 39.710938 L 89.902344 39.710938 C 89.929688 39.710938 89.953125 39.722656 89.972656 39.738281 C 89.988281 39.757812 90 39.785156 90 39.808594 C 90 39.835938 89.988281 39.863281 89.972656 39.878906 C 89.953125 39.898438 89.929688 39.910156 89.902344 39.910156 Z M 89.902344 39.910156 "/>
<path style=" stroke:none;fill-rule:evenodd;fill:url(#linear1);" d="M 68.078125 17.433594 L 68.152344 17.449219 L 68.289062 17.378906 C 68.40625 17.316406 68.425781 17.308594 68.441406 17.304688 C 68.644531 17.253906 68.730469 17.480469 68.550781 17.585938 L 68.515625 17.605469 L 68.554688 17.671875 C 68.578125 17.707031 68.597656 17.738281 68.597656 17.738281 C 68.597656 17.738281 68.613281 17.714844 68.632812 17.6875 C 68.65625 17.648438 68.667969 17.632812 68.679688 17.621094 C 68.847656 17.46875 68.746094 17.207031 68.515625 17.195312 C 68.425781 17.191406 68.417969 17.195312 68.183594 17.320312 L 68 17.417969 Z M 68.078125 17.433594 "/>
<path style=" stroke:none;fill-rule:evenodd;fill:url(#linear2);" d="M 68.371094 17.835938 C 68.542969 18.109375 68.550781 18.125 68.554688 18.121094 C 68.554688 18.117188 68.566406 18.089844 68.582031 18.058594 L 68.605469 18.003906 L 68.488281 17.808594 L 68.371094 17.617188 L 68.453125 17.570312 C 68.546875 17.519531 68.542969 17.519531 68.546875 17.488281 C 68.546875 17.449219 68.507812 17.40625 68.46875 17.40625 C 68.457031 17.40625 68.4375 17.417969 68.324219 17.476562 L 68.191406 17.546875 Z M 68.371094 17.835938 "/>
</g>
</svg>
