<svg id="e2DHNXsmgwK1" xmlns="http://www.w3.org/2000/svg" xmlns:xlink="http://www.w3.org/1999/xlink" viewBox="0 0 360 171" shape-rendering="geometricPrecision" text-rendering="geometricPrecision">
<style><![CDATA[
#e2DHNXsmgwK4_to {animation: e2DHNXsmgwK4_to__to 3000ms linear 1 normal forwards}@keyframes e2DHNXsmgwK4_to__to { 0% {offset-distance: 0%} 23.333333% {offset-distance: 0%} 43.333333% {offset-distance: 100%} 100% {offset-distance: 100%}}
]]></style>
<defs><radialGradient id="e2DHNXsmgwK23-fill" cx="0" cy="0" r="1" spreadMethod="pad" gradientUnits="userSpaceOnUse" gradientTransform="matrix(46.499901 31 -51.058899 76.5882 290.5 104.5)"><stop id="e2DHNXsmgwK23-fill-0" offset="0%" stop-color="#a4119d"/><stop id="e2DHNXsmgwK23-fill-1" offset="100%" stop-color="rgba(255,48,104,0.88)"/></radialGradient><linearGradient id="e2DHNXsmgwK33-fill" x1="101" y1="20.9999" x2="125" y2="20.9999" spreadMethod="pad" gradientUnits="userSpaceOnUse" gradientTransform="translate(0 0)"><stop id="e2DHNXsmgwK33-fill-0" offset="0%" stop-color="#a4119d"/><stop id="e2DHNXsmgwK33-fill-1" offset="100%" stop-color="rgba(255,48,104,0.83)"/></linearGradient><linearGradient id="e2DHNXsmgwK36-fill" x1="273.052" y1="68.4617" x2="274.225" y2="70.6267" spreadMethod="pad" gradientUnits="userSpaceOnUse" gradientTransform="translate(0 0)"><stop id="e2DHNXsmgwK36-fill-0" offset="0%" stop-color="#a4119d"/><stop id="e2DHNXsmgwK36-fill-1" offset="100%" stop-color="#ff3068"/></linearGradient><linearGradient id="e2DHNXsmgwK37-fill" x1="272.419" y1="69.9687" x2="276.009" y2="67.7238" spreadMethod="pad" gradientUnits="userSpaceOnUse" gradientTransform="translate(0 0)"><stop id="e2DHNXsmgwK37-fill-0" offset="0%" stop-color="#fbbc05"/><stop id="e2DHNXsmgwK37-fill-1" offset="100%" stop-color="rgba(24,49,130,0)"/></linearGradient></defs><g clip-path="url(#e2DHNXsmgwK38)"><g><g id="e2DHNXsmgwK4_to" style="offset-path:path('M122.64,150.815L120,103');offset-rotate:0deg"><g transform="scale(0.9,0.9) translate(-119.172153,-96.2751)"><path d="M72.2646,121.269c-1.0608.002-2.0778.428-2.8279,1.185-.7502.758-1.1721,1.785-1.1733,2.856v9.454c.0012,1.071.4231,2.098,1.1733,2.856.7501.757,1.7671,1.183,2.8279,1.185h5.0751c1.0609-.002,2.0779-.428,2.828-1.185.7501-.758,1.1721-1.785,1.1732-2.856v-9.454c-.0011-1.071-.4231-2.098-1.1732-2.856-.7501-.757-1.7671-1.183-2.828-1.185h-5.0751Z" fill="#14213d"/><path d="M166.08,139.119h-5.075c-1.143-.001-2.24-.46-3.048-1.277-.809-.816-1.263-1.924-1.265-3.078v-9.454c.002-1.155.456-2.262,1.265-3.078.808-.817,1.905-1.276,3.048-1.277h5.075c1.143.001,2.24.46,3.048,1.277.809.816,1.263,1.923,1.265,3.078v9.454c-.002,1.154-.456,2.262-1.265,3.078-.808.817-1.905,1.276-3.048,1.277Z" fill="#14213d"/><path d="M162.712,131.55h-87.3914c-3.9772,0-7.2129-2.368-7.2129-5.279v-16.971l4.3377-4.613h93.9866l3.493,4.623v16.961c0,2.911-3.235,5.279-7.213,5.279Z" fill="#f4b41c"/><path d="M166.024,113.177h-93.0802l-.9459-14.6478.6019-1.4988l3.4988-8.6952h86.1404l4.731,9.8739-.946,14.9679Z" fill="#f4b41c"/><path d="M166.812,98.2407l-.695,11.0053h-20.478v-8.175l20.591-4.0441.582,1.2138Z" fill="#fff"/><path d="M93.0175,101.07v8.176h-20.1708l-.6913-10.6912.5886-1.4652L93.0175,101.07Z" fill="#fff"/><path d="M161.72,90.8509h-85.1032l9.0769-30.5555c.3702-1.262,1.1325-2.3701,2.1744-3.1608s2.308-1.2219,3.6113-1.2299l56.3606-.5421c1.362-.0133,2.689.4339,3.77,1.2706s1.853,2.0146,2.195,3.3461l7.915,30.8716Z" fill="#f4b41c"/><path d="M155.168,87.9616l-72.0137-.8623c-.091-.0011-.1805-.0238-.2613-.0662s-.1506-.1033-.2039-.1779c-.0532-.0746-.0883-.1608-.1026-.2516-.0142-.0908-.0072-.1837.0206-.2713l6.9037-21.7526c.0376-.1186.1116-.222.2111-.2954s.2197-.1129.343-.1129h57.9221c.123,0,.244.0395.343.1128.1.0734.174.1767.211.2952l7.188,22.615c.028.0887.035.1829.02.2748s-.051.179-.106.2539c-.054.0749-.126.1356-.209.1771-.082.0415-.173.0625-.266.0614Z" fill="#fff"/><path d="M128.874,59.0913h-19.411c-.163,0-.312-.1626-.387-.4246-.075-.2681-.064-.5534.031-.815l1.6-4.0878c.082-.2084.215-.3327.357-.3327h16.209c.141,0,.275.1243.356.3327l1.601,4.0878c.095.2616.106.5469.031.815-.076.262-.224.4246-.387.4246Z" fill="#4cc9f0"/><path d="M76.6704,90.2219h-12.7661v-2.8338c.001-.916.3618-1.7943,1.0032-2.4421.6415-.6477,1.5111-1.0121,2.4182-1.0131h9.3447v6.289Z" fill="#4cc9f0"/><path d="M174.44,90.2219h-12.766v-6.289h9.345c.907.001,1.777.3654,2.418,1.0131.642.6478,1.002,1.5261,1.003,2.4421v2.8338Z" fill="#4cc9f0"/></g></g><path d="M62.4106,134.396L0.000244,157.038l.264936.745L62.6756,135.141l-.265-.745Z" fill="#3f3d56"/><path d="M175.54,134.398l-.264.745l62.412,22.636.265-.745-62.413-22.636Z" fill="#3f3d56"/><path d="M122.64,171h-3.735v-4.873h3.735v4.873Zm0-9.746h-3.735v-4.873h3.735v4.873Z" fill="#e6e6e6"/><path d="M286.795,153.824h-4.115L282,150.5l5.013.324-.218,3Z" fill="#fa9898"/><path d="M287.832,158.195h-13.267v-.169c.002-1.383.546-2.708,1.514-3.686s2.281-1.528,3.65-1.529h8.103v5.384Z" fill="#14213d"/><path d="M339.794,146.24l-3.527,2.14-5.311-6.434l4.931-2.082l3.907,6.376Z" fill="#fa9898"/><path d="M331.42,156.101l-.086-.146c-.704-1.186-.913-2.605-.582-3.946.331-1.342,1.176-2.496,2.349-3.209l6.945-4.215l2.746,4.616-11.372,6.9Z" fill="#14213d"/><path d="M287.852,150.86h-.071c-2.002-.007-4.001-.123-5.99-.348-.758-.076-1.581-.158-2.572-.24l-.034-.007c-.676-.203-.694-6.605-.408-28.522.147-11.226.313-23.949.115-32.0518l-.002-.0796.06-.0524c7.339-6.4468,16.765-8.8634,26.54-6.8045l.072.0152.038.0644c4.044,6.9096,10.149,16.8623,16.053,26.4877c13.554,22.095,17.431,28.593,17.006,29.083l-.051.04c-.926.468-1.621.828-2.212,1.134-1.978,1.024-2.797,1.448-7.196,3.278l-.109.045-.079-.088c-13.753-15.219-25.197-32.219-32.276-47.9349-.827,5.3649-1.831,12.3709-2.892,19.7739-3.051,21.286-5.113,35.303-5.942,36.156l-.05.051Z" fill="url(#e2DHNXsmgwK23-fill)"/><path d="M309.212,21.7299c1.385-5.7753,2.558-12.28926-.054-17.60839-1.812-3.690671-8.517-4.933526-12.36-3.603924s-6.622,4.936914-7.844,8.870024-1.08,8.17129-.548,12.26009c7.069-.1372,14.137-.2743,20.806.0822Z" fill="#2f2e41"/><path d="M297.284,21.7282c4.552,0,8.242-3.7269,8.242-8.3242s-3.69-8.32417-8.242-8.32417-8.243,3.72686-8.243,8.32417s3.691,8.3242,8.243,8.3242Z" fill="#fa9898"/><path d="M307.36,11.6895c.026-1.401-.226-2.79305-.744-4.09338-.517-1.30033-1.287-2.48243-2.265-3.47608-.979-.99364-2.145-1.77855-3.429-2.30809-1.285-.52953-2.662-.79289-4.049-.77442-1.388.01847-2.757.31839-4.028.88194-1.27.56356-2.415,1.37924-3.367,2.39858s-1.692,2.22155-2.175,3.53519-.699,2.71186-.636,4.11176c7.055.0151,14.11.0302,20.693-.2755Z" fill="#2f2e41"/><path d="M291.557,91.3286c8.201-.0369,16.347,1.3405,24.088,4.0728.27-13.1215-4.203-26.2673-12.291-36.1017l-.061-.0735.031-.0902c2.16-6.3039,4.393-12.8198,6.389-19.3034l-.031-.1089c-1.399-5.0241-4.403-10.1009-9.182-15.5209-.518-.5424-1.222-.8654-1.967-.9036-.746-.0381-1.478.2115-2.048.6982-8.495,7.8646-13.114,19.6483-12.054,30.7528l.003.0327-.009.0316c-3.743,12.8039-5.101,19.3803-6.3,25.1827-.874,4.2326-1.631,7.8977-3.151,13.1344c5.448-1.1972,11.008-1.8016,16.583-1.803Z" fill="#14213d" stroke="#000" stroke-width="0.25" stroke-opacity="0.1"/><path d="M303.631,50.853L291.456,77.6197l-6.954-7.1095L303.631,50.853Z" opacity="0.1"/><path d="M276.304,65.7206l.849,1.6656c.008.0154.009.0333.004.0498s-.017.0302-.032.0381l-.041.0213l4.422,8.6768c.122.2401.145.5195.064.7766-.082.2572-.261.4711-.499.5947l-5.368,2.7903c-.118.0612-.247.0983-.379.1093-.132.0111-.264-.0043-.39-.0451s-.243-.1063-.344-.1927-.184-.1921-.245-.311l-4.267-8.3725-.029.0154c-.011.0056-.024.0067-.035.003-.012-.0037-.021-.0119-.027-.0227l-.483-.948c-.003-.0054-.004-.0112-.005-.0173c0-.006,0-.0121.002-.0179s.005-.0111.009-.0158c.004-.0046.008-.0084.014-.0112l.029-.0154-.182-.357-.03.0155c-.011.0058-.024.0069-.036.0029-.012-.0039-.022-.0126-.028-.024l-.476-.935c-.006-.0113-.007-.0246-.003-.0367.003-.0122.012-.0223.023-.0282l.03-.0155-.248-.4874-.031.0158c-.01.0052-.021.0061-.032.0027s-.02-.011-.025-.0211l-.26-.5103c-.005-.0101-.006-.0219-.003-.0328.004-.0108.011-.0199.021-.0251l.031-.0158-.527-1.0332c-.122-.24-.145-.5193-.063-.7764.081-.2571.261-.4709.498-.5945l5.369-2.7903c.237-.1235.514-.1467.769-.0643.254.0823.466.2634.588.5035l1.238,2.4289.041-.0212c.015-.0079.033-.0094.05-.0041.016.0053.029.0169.037.0323Z" fill="#3f3d56"/><path d="M274.6,63.6866l6.515,12.7836c.078.1523.092.3295.04.4926-.051.1631-.165.2988-.316.3772L275.7,80.0109c-.15.0786-.326.0935-.487.0416s-.296-.1664-.373-.3183l-.001-.0018-6.515-12.7835c-.038-.0754-.062-.1578-.069-.2423s.003-.1697.029-.2505c.025-.0807.066-.1556.121-.2204.054-.0647.12-.118.195-.1568l.769-.3998.051.0997c.032.0621.075.1173.128.1624.053.0452.114.0794.18.1007.065.0213.135.0293.204.0236s.136-.0252.197-.0572l2.614-1.3584c.124-.0645.218-.1763.26-.3106.043-.1344.031-.2803-.033-.4058l-.051-.0996.82-.426c.151-.0785.326-.0932.488-.041.161.0522.296.1671.373.3194v.0003Z" fill="#fcfcff"/><path d="M276.489,79.3043c.492-.0346.971-.1777,1.402-.4193.431-.2417.805-.5759,1.095-.9791.29-.4033.488-.8659.582-1.3551.093-.4892.08-.9931-.041-1.4764l10.032-6.6373-5.721-2.4959-8.649,6.6855c-.79.2577-1.46.7992-1.881,1.522-.422.7228-.566,1.5767-.406,2.3998s.614,1.5582,1.275,2.0662s1.483.7533,2.312.6896Z" fill="#fa9898"/><path d="M286.141,74.5226l-.127-.0903c-2.387-1.7746-5.037-3.6096-7.6-5.3843l-.154-.1066.121-.1433c5.471-6.464,10.947-13.2157,16.244-19.7471-.004-.0105-.007-.0181-.01-.0235l.05-.0257.021-.026.011.0095.032-.0164-.144.0112-1.633-12.9305c-1.474-2.0317-1.757-6.0654.176-8.8812c2.002-2.9169,6.237-3.8931,9.063-2.0899.741.502,1.36,1.1658,1.812,1.9422s.725,1.6455.8,2.543c.105.7996.032,1.6128-.214,2.3802s-.659,1.4696-1.208,2.0553c.694,6.8431.721,12.9597.746,18.8762l.001.0591-.037.0486c-5.647,7.2454-11.85,14.4522-17.849,21.4217l-.101.1178Z" fill="#14213d" stroke="#000" stroke-width="0.25" stroke-opacity="0.1"/><path d="M119.06,39.2228c10.235,0,18.533-8.3798,18.533-18.7167s-8.298-18.71679-18.533-18.71679c-10.236,0-18.534,8.37979-18.534,18.71679s8.298,18.7167,18.534,18.7167Z" fill="url(#e2DHNXsmgwK33-fill)"/><path d="M117.293,28.4069l-5.547-7.2029l3.226-2.5338l2.627,3.4104l8.873-9.4593l2.967,2.839-12.146,12.9466Z" fill="#fff"/><path d="M359.608,158.711h-93.666c-.104,0-.204-.042-.277-.116-.074-.075-.115-.175-.115-.28s.041-.206.115-.28c.073-.074.173-.116.277-.116h93.666c.104,0,.204.042.277.116.074.074.115.175.115.28s-.041.205-.115.28c-.073.074-.173.116-.277.116Z" fill="#3f3d56"/><path d="M272.307,69.3315l.307.0673.543-.2856c.473-.2486.552-.2876.607-.3008.808-.1942,1.156.7034.434,1.1187l-.142.0816.165.2635c.09.1449.166.2626.168.2615.003-.0011.065-.0936.139-.2055.1-.1524.149-.2175.196-.2597.669-.6064.259-1.6457-.668-1.6925-.353-.0177-.389-.0044-1.319.4916l-.737.3926.307.0673Z" clip-rule="evenodd" fill="url(#e2DHNXsmgwK36-fill)" fill-rule="evenodd"/><path d="M273.483,70.9334c.682,1.0906.719,1.1476.728,1.1278.006-.0115.056-.1216.112-.2447l.101-.2237-.473-.768-.474-.7681.334-.186c.372-.2069.368-.2039.373-.3183.008-.1679-.151-.3369-.313-.3331-.041.001-.121.0404-.577.2832l-.529.2822.718,1.1487Z" clip-rule="evenodd" fill="url(#e2DHNXsmgwK37-fill)" fill-rule="evenodd"/></g><clipPath id="e2DHNXsmgwK38"><rect width="360" height="171" rx="0" ry="0" fill="#fff"/></clipPath></g></svg>
